<?xml version="1.0" encoding="utf-8"?>
<!-- Generator: Adobe Illustrator 19.2.1, SVG Export Plug-In . SVG Version: 6.00 Build 0)  -->
<svg version="1.1" id="Capa_1" xmlns="http://www.w3.org/2000/svg" xmlns:xlink="http://www.w3.org/1999/xlink" x="0px" y="0px"
	 viewBox="0 0 200 107" style="enable-background:new 0 0 200 107;" xml:space="preserve">
<style type="text/css">
	.st0{opacity:0.7;}
	.st1{fill:#FFFFFF;}
</style>
<g class="st0">
	<g>
		<g>
			<path class="st1" d="M48.7,57.6H13.1V21.9h35.7V57.6z M17.3,53.3h27.2V26.1H17.3V53.3z"/>
		</g>
	</g>
	<g>
		<g>
			<path class="st1" d="M64.7,72.6H29V36.9h35.7V72.6z M33.3,68.3h27.2V41.1H33.3V68.3z"/>
		</g>
	</g>
	<g>
		<g>
			<path class="st1" d="M117.1,51.2c0,10-7.8,17.4-18.6,17.4s-18.6-7.3-18.6-17.4c0-10,7.8-17.2,18.6-17.2S117.1,41.2,117.1,51.2z
				 M91.4,51.2c0,4.6,3.4,8.1,7.2,8.1s7-3.4,7-8.1c0-4.6-3.1-8-7-8C94.8,43.3,91.4,46.6,91.4,51.2z"/>
			<path class="st1" d="M130,68.1l-12.9-33.9h12l7,22.2l7-22.2h11.4l-12.9,33.9H130z"/>
			<path class="st1" d="M191.7,51.2c0,10-7.8,17.4-18.6,17.4s-18.6-7.3-18.6-17.4c0-10,7.8-17.2,18.6-17.2S191.7,41.2,191.7,51.2z
				 M166,51.2c0,4.6,3.4,8.1,7.2,8.1s7-3.4,7-8.1c0-4.6-3.1-8-7-8C169.3,43.3,166,46.6,166,51.2z"/>
		</g>
	</g>
</g>
</svg>
